<?xml version="1.0" encoding="UTF-8" standalone="no"?>
<svg
   version="1.2"
   viewBox="0 0 100 100"
   width="100"
   height="100"
   id="svg7"
   sodipodi:docname="arrow-return.svg"
   inkscape:version="1.1.1 (3bf5ae0d25, 2021-09-20)"
   xmlns:inkscape="http://www.inkscape.org/namespaces/inkscape"
   xmlns:sodipodi="http://sodipodi.sourceforge.net/DTD/sodipodi-0.dtd"
   xmlns="http://www.w3.org/2000/svg"
   xmlns:svg="http://www.w3.org/2000/svg"
   xmlns:rdf="http://www.w3.org/1999/02/22-rdf-syntax-ns#"
   xmlns:cc="http://creativecommons.org/ns#"
   xmlns:dc="http://purl.org/dc/elements/1.1/">
  <defs
     id="defs11">
    <inkscape:path-effect
       effect="fillet_chamfer"
       id="path-effect1112"
       is_visible="true"
       lpeversion="1"
       satellites_param="F,0,0,1,0,2,0,1 @ F,0,0,1,0,2,0,1 @ F,0,0,1,0,2,0,1 @ F,0,0,1,0,2,0,1"
       unit="px"
       method="auto"
       mode="F"
       radius="2"
       chamfer_steps="1"
       flexible="false"
       use_knot_distance="true"
       apply_no_radius="true"
       apply_with_radius="true"
       only_selected="false"
       hide_knots="false" />
    <inkscape:path-effect
       effect="fillet_chamfer"
       id="path-effect1110"
       is_visible="true"
       lpeversion="1"
       satellites_param="F,0,0,1,0,2,0,1 @ F,0,0,1,0,2,0,1 @ F,0,0,1,0,2,0,1 @ F,0,0,1,0,2,0,1"
       unit="px"
       method="auto"
       mode="F"
       radius="2"
       chamfer_steps="1"
       flexible="false"
       use_knot_distance="true"
       apply_no_radius="true"
       apply_with_radius="true"
       only_selected="false"
       hide_knots="false" />
  </defs>
  <sodipodi:namedview
     id="namedview9"
     pagecolor="#ffffff"
     bordercolor="#666666"
     borderopacity="1.0"
     inkscape:pageshadow="2"
     inkscape:pageopacity="0.0"
     inkscape:pagecheckerboard="0"
     showgrid="false"
     inkscape:zoom="8"
     inkscape:cx="47.3125"
     inkscape:cy="47.8125"
     inkscape:window-width="2560"
     inkscape:window-height="1377"
     inkscape:window-x="-8"
     inkscape:window-y="-8"
     inkscape:window-maximized="1"
     inkscape:current-layer="svg7" />
  <title
     id="title2">half-cross-upper-svg</title>
  <style
     id="style4">
		.s0 { fill: #c0c0c0 } 
	</style>
  <path
     id="Shape 1"
     class="s0"
     d="m 33.786276,16.262081 c 0,0 1.6853,-1.444544 3.210096,0 1.524797,1.444543 6.420193,6.420195 6.420193,6.420195 0,0 1.6853,0.882775 -0.321008,3.049591 -2.006313,2.166816 -19.82235,20.223613 -19.82235,20.223613 l 20.143358,20.223611 c 0,0 1.203786,1.364292 0.722272,2.487825 -1.123533,2.487827 -6.741203,7.22272 -6.741203,7.22272 0,0 -1.043283,1.605049 -4.25338,-1.123533 C 31.940469,73.803073 16.371498,58.715616 8.3462549,49.807596 6.8214587,48.122296 6.5004477,47.079013 6.5004477,45.95548 c 0,-1.123535 1.2840392,-3.531107 2.5680772,-4.815146 C 16.853012,32.954587 33.786276,16.262081 33.786276,16.262081 Z"
     style="stroke-width:0.802525" />
  <metadata
     id="metadata927">
    <rdf:RDF>
      <cc:Work
         rdf:about="">
        <dc:title>half-cross-upper-svg</dc:title>
      </cc:Work>
    </rdf:RDF>
  </metadata>
  <path
     style="fill:#bfbfbf;fill-opacity:1;stroke:none;stroke-width:0.375;paint-order:stroke markers fill"
     id="rect848"
     width="57.071945"
     height="12.436018"
     x="18.531128"
     y="39.565834"
     sodipodi:type="rect"
     d="m 20.531128,39.565834 h 53.071945 a 2,2 45 0 1 2,2 v 8.436018 a 2,2 135 0 1 -2,2 H 20.531128 a 2,2 45 0 1 -2,-2 v -8.436018 a 2,2 135 0 1 2,-2 z"
     inkscape:path-effect="#path-effect1112" />
  <path
     style="fill:#bfbfbf;fill-opacity:1;stroke:none;stroke-width:0.375;paint-order:stroke markers fill"
     id="rect848-3"
     width="54.830238"
     height="12.436018"
     x="39.560108"
     y="-77.476151"
     transform="rotate(90)"
     sodipodi:type="rect"
     d="m 41.560108,-77.476151 h 50.830239 a 2,2 45 0 1 2,2 v 8.436018 a 2,2 135 0 1 -2,2 H 41.560108 a 2,2 45 0 1 -2,-2 v -8.436018 a 2,2 135 0 1 2,-2 z"
     inkscape:path-effect="#path-effect1110" />
</svg>
