<?xml version="1.0" encoding="UTF-8" standalone="no"?>
<svg
   version="1.2"
   viewBox="0 0 100 100"
   width="100"
   height="100"
   id="svg7"
   sodipodi:docname="arrow-left.svg"
   inkscape:version="1.1.1 (3bf5ae0d25, 2021-09-20)"
   xmlns:inkscape="http://www.inkscape.org/namespaces/inkscape"
   xmlns:sodipodi="http://sodipodi.sourceforge.net/DTD/sodipodi-0.dtd"
   xmlns="http://www.w3.org/2000/svg"
   xmlns:svg="http://www.w3.org/2000/svg"
   xmlns:rdf="http://www.w3.org/1999/02/22-rdf-syntax-ns#"
   xmlns:cc="http://creativecommons.org/ns#"
   xmlns:dc="http://purl.org/dc/elements/1.1/">
  <defs
     id="defs11" />
  <sodipodi:namedview
     id="namedview9"
     pagecolor="#ffffff"
     bordercolor="#666666"
     borderopacity="1.0"
     inkscape:pageshadow="2"
     inkscape:pageopacity="0.0"
     inkscape:pagecheckerboard="0"
     showgrid="false"
     inkscape:zoom="8.73"
     inkscape:cx="50"
     inkscape:cy="50"
     inkscape:window-width="2560"
     inkscape:window-height="1377"
     inkscape:window-x="-8"
     inkscape:window-y="-8"
     inkscape:window-maximized="1"
     inkscape:current-layer="svg7" />
  <title
     id="title2">half-cross-upper-svg</title>
  <style
     id="style4">
		.s0 { fill: #c0c0c0 } 
	</style>
  <path
     id="Shape 1"
     class="s0"
     d="m 60.479167,12.957816 c 0,0 2.1,-1.8 4,0 1.9,1.8 8,8 8,8 0,0 2.1,1.1 -0.4,3.8 -2.5,2.7 -24.7,25.2 -24.7,25.2 l 25.1,25.2 c 0,0 1.5,1.7 0.9,3.1 -1.4,3.1 -8.4,9 -8.4,9 0,0 -1.3,2 -5.3,-1.4 -1.5,-1.2 -20.9,-20 -30.9,-31.1 -1.9,-2.1 -2.3,-3.4 -2.3,-4.8 0,-1.4 1.6,-4.4 3.2,-6 9.7,-10.2 30.8,-31 30.8,-31 z" />
  <metadata
     id="metadata927">
    <rdf:RDF>
      <cc:Work
         rdf:about="">
        <dc:title>half-cross-upper-svg</dc:title>
      </cc:Work>
    </rdf:RDF>
  </metadata>
</svg>
