<?xml version="1.0" encoding="UTF-8" standalone="no"?>
<svg
   version="1.2"
   viewBox="0 0 100 100"
   width="100"
   height="100"
   id="svg7"
   sodipodi:docname="gears.svg"
   inkscape:version="1.1.1 (3bf5ae0d25, 2021-09-20)"
   xmlns:inkscape="http://www.inkscape.org/namespaces/inkscape"
   xmlns:sodipodi="http://sodipodi.sourceforge.net/DTD/sodipodi-0.dtd"
   xmlns="http://www.w3.org/2000/svg"
   xmlns:svg="http://www.w3.org/2000/svg">
  <defs
     id="defs11" />
  <sodipodi:namedview
     id="namedview9"
     pagecolor="#ffffff"
     bordercolor="#666666"
     borderopacity="1.0"
     inkscape:pageshadow="2"
     inkscape:pageopacity="0.0"
     inkscape:pagecheckerboard="0"
     showgrid="false"
     inkscape:zoom="8.73"
     inkscape:cx="45.189003"
     inkscape:cy="50"
     inkscape:window-width="2560"
     inkscape:window-height="1377"
     inkscape:window-x="-8"
     inkscape:window-y="-8"
     inkscape:window-maximized="1"
     inkscape:current-layer="svg7" />
  <title
     id="title2">half-cross-upper-svg</title>
  <style
     id="style4">
		.s0 { fill: #c0c0c0 } 
	</style>
  <path
     id="circle1297"
     style="fill:#b3b3b3;stroke-width:0.295812;paint-order:stroke markers fill"
     d="m 34.564832,34.192026 a 31.128431,31.128431 0 0 0 -4.121227,0.295337 l -1.694395,8.203638 a 23.408185,23.408185 0 0 0 -6.072143,2.517964 l -6.949718,-4.571826 a 31.128431,31.128431 0 0 0 -5.8460005,5.845998 l 4.5718285,6.94972 A 23.408185,23.408185 0 0 0 11.935211,59.505 l -8.2036376,1.694395 a 31.128431,31.128431 0 0 0 -0.2953378,4.121226 31.128431,31.128431 0 0 0 0.2953378,4.121227 l 8.2036376,1.694395 a 23.408185,23.408185 0 0 0 2.517966,6.072143 l -4.5718285,6.949718 a 31.128431,31.128431 0 0 0 5.8460005,5.846 l 6.949718,-4.571828 a 23.408185,23.408185 0 0 0 6.072143,2.517966 l 1.694395,8.203637 a 31.128431,31.128431 0 0 0 4.121227,0.295338 31.128431,31.128431 0 0 0 4.121226,-0.295338 l 1.694395,-8.203637 a 23.408185,23.408185 0 0 0 6.072143,-2.517966 l 6.94972,4.571828 a 31.128431,31.128431 0 0 0 5.845998,-5.846 l -4.571826,-6.949718 a 23.408185,23.408185 0 0 0 2.517964,-6.072143 l 8.203638,-1.694395 a 31.128431,31.128431 0 0 0 0.295337,-4.121227 31.128431,31.128431 0 0 0 -0.281836,-4.11954 L 57.240019,59.515125 A 23.408185,23.408185 0 0 0 54.70349,53.392353 l 4.585328,-6.971658 a 31.128431,31.128431 0 0 0 -5.82406,-5.82406 L 46.4931,45.181963 a 23.408185,23.408185 0 0 0 -6.122772,-2.536529 l -1.685956,-8.171572 a 31.128431,31.128431 0 0 0 -4.11954,-0.281836 z m 0.04894,16.306017 A 14.277486,14.277486 0 0 1 48.891243,64.775512 14.277486,14.277486 0 0 1 34.613773,79.052981 14.277486,14.277486 0 0 1 20.336304,64.775512 14.277486,14.277486 0 0 1 34.613772,50.498043 Z" />
  <path
     id="path1595"
     style="fill:#b3b3b3;stroke-width:0.239717;paint-order:stroke markers fill"
     d="m 65.074096,5.5494707 a 25.225577,25.225577 0 0 0 -3.102408,1.259402 l 0.747914,6.7469833 a 18.969313,18.969313 0 0 0 -4.049588,3.460865 l -6.500933,-1.783732 a 25.225577,25.225577 0 0 0 -3.042098,5.969263 l 5.263546,4.211763 a 18.969313,18.969313 0 0 0 -0.420468,5.310363 l -5.898578,3.359752 a 25.225577,25.225577 0 0 0 0.804148,3.250286 25.225577,25.225577 0 0 0 1.259403,3.10241 l 6.746982,-0.747914 a 18.969313,18.969313 0 0 0 3.460868,4.049587 l -1.783734,6.500932 a 25.225577,25.225577 0 0 0 5.969264,3.042097 l 4.21176,-5.263544 a 18.969313,18.969313 0 0 0 5.310364,0.420468 l 3.359751,5.898577 a 25.225577,25.225577 0 0 0 3.250289,-0.804148 25.225577,25.225577 0 0 0 3.102408,-1.259401 l -0.747915,-6.746983 a 18.969313,18.969313 0 0 0 4.049587,-3.460867 l 6.500934,1.783733 A 25.225577,25.225577 0 0 0 96.607689,37.8801 l -5.263545,-4.211761 a 18.969313,18.969313 0 0 0 0.420469,-5.310364 l 5.898577,-3.359752 a 25.225577,25.225577 0 0 0 -0.80415,-3.250289 25.225577,25.225577 0 0 0 -1.248571,-3.104487 l -6.720155,0.746389 a 18.969313,18.969313 0 0 0 -3.487853,-4.08396 L 87.191107,8.7846516 A 25.225577,25.225577 0 0 0 81.244248,5.7539717 l -4.225291,5.2794453 a 18.969313,18.969313 0 0 0 -5.354034,-0.422103 l -3.34522,-5.8759752 a 25.225577,25.225577 0 0 0 -3.245607,0.8141319 z m 4.120035,12.5552653 a 11.57006,11.57006 0 0 1 14.578511,7.429601 11.57006,11.57006 0 0 1 -7.4296,14.578511 11.57006,11.57006 0 0 1 -14.578511,-7.429601 11.57006,11.57006 0 0 1 7.4296,-14.578511 z" />
</svg>
