{
	"asset":{
		"generator":"Khronos glTF Blender I/O v4.0.44",
		"version":"2.0"
	},
	"scene":0,
	"scenes":[
		{
			"name":"Scene",
			"nodes":[
				0
			]
		}
	],
	"nodes":[
		{
			"mesh":0,
			"name":"Text"
		}
	],
	"meshes":[
		{
			"name":"Text",
			"primitives":[
				{
					"attributes":{
						"POSITION":0,
						"NORMAL":1,
						"TEXCOORD_0":2
					},
					"indices":3
				}
			]
		}
	],
	"accessors":[
		{
			"bufferView":0,
			"componentType":5126,
			"count":1589,
			"max":[
				0.741027295589447,
				0.6910000443458557,
				0.14000003039836884
			],
			"min":[
				-0.702364981174469,
				-0.009000007063150406,
				-0.14000000059604645
			],
			"type":"VEC3"
		},
		{
			"bufferView":1,
			"componentType":5126,
			"count":1589,
			"type":"VEC3"
		},
		{
			"bufferView":2,
			"componentType":5126,
			"count":1589,
			"type":"VEC2"
		},
		{
			"bufferView":3,
			"componentType":5123,
			"count":4668,
			"type":"SCALAR"
		}
	],
	"bufferViews":[
		{
			"buffer":0,
			"byteLength":19068,
			"byteOffset":0,
			"target":34962
		},
		{
			"buffer":0,
			"byteLength":19068,
			"byteOffset":19068,
			"target":34962
		},
		{
			"buffer":0,
			"byteLength":12712,
			"byteOffset":38136,
			"target":34962
		},
		{
			"buffer":0,
			"byteLength":9336,
			"byteOffset":50848,
			"target":34963
		}
	],
	"buffers":[
		{
			"byteLength":60184,
			"uri":"error.bin"
		}
	]
}
